<?xml version="1.0" encoding="UTF-8"?>
<svg version="1.1" xmlns="http://www.w3.org/2000/svg" width="991" height="1801">
<path d="M0 0 C58.74 0 117.48 0 178 0 C181.67994871 9.81319655 185.32725214 19.6144655 188.80859375 29.49609375 C189.46756401 31.36041046 189.46756401 31.36041046 190.1398468 33.26239014 C191.3268613 36.62062203 192.51204684 39.97949662 193.69688416 43.33849716 C194.9605282 46.9198308 196.22592952 50.50054341 197.49121094 54.08129883 C199.07241589 58.55641255 200.65347548 63.03157736 202.23379517 67.50700378 C205.80337585 77.61575763 209.37818958 87.72264636 212.95703125 97.828125 C213.44335868 99.20145515 213.92968173 100.57478685 214.41600037 101.94812012 C214.7757267 102.96396305 214.7757267 102.96396305 215.14272022 104.00032806 C215.38187499 104.67568855 215.62102976 105.35104904 215.86743164 106.046875 C216.10575305 106.71987892 216.34407446 107.39288284 216.58961773 108.08628082 C224.81664202 131.31940394 233.01692907 154.56168026 241.18664551 177.81503296 C246.54553077 193.06472608 251.94956918 208.29736923 257.4006958 223.51431274 C262.7791294 238.53242554 268.08677074 253.57490581 273.375 268.625 C282.20869842 293.76481503 291.09669262 318.88470007 300 344 C305.61 359.84 311.22 375.68 317 392 C317.33 262.64 317.66 133.28 318 0 C376.74 0 435.48 0 496 0 C496 297 496 594 496 900 C486.56637117 899.4103982 477.27594427 898.8067121 467.91015625 897.73046875 C465.66361092 897.48046421 463.41702725 897.23080406 461.17041016 896.98144531 C460.01212708 896.85177368 458.85384399 896.72210205 457.66046143 896.58850098 C416.34246194 891.98351605 374.81961356 888.09539394 333.25 886.73046875 C331.42553345 886.6699231 331.42553345 886.6699231 329.56420898 886.6081543 C327.30099109 886.53825222 325.03745066 886.47785693 322.77368164 886.42895508 C321.78746826 886.4008374 320.80125488 886.37271973 319.78515625 886.34375 C318.49943726 886.31571289 318.49943726 886.31571289 317.18774414 886.28710938 C315 886 315 886 312 884 C310.90496826 881.65039062 310.90496826 881.65039062 309.87792969 878.65625 C309.48552597 877.52901016 309.09312225 876.40177032 308.68882751 875.2403717 C308.27073318 874.00604904 307.85263885 872.77172638 307.421875 871.5 C306.97515435 870.20564107 306.52746707 868.91161539 306.07887268 867.61790466 C305.12358062 864.8570775 304.17452709 862.09421654 303.2303772 859.32955933 C301.74228206 854.97271172 300.24025473 850.62075716 298.73510742 846.26977539 C298.23092747 844.81197089 297.72676181 843.35416144 297.22261047 841.89634705 C296.97369867 841.17664167 296.72478687 840.4569363 296.46833229 839.71542168 C295.71408755 837.53296813 294.96118441 835.35005607 294.20866394 833.16700745 C290.32179654 821.89533563 286.3483012 810.65673864 282.3125 799.4375 C276.68830548 783.77152347 271.14223981 768.07895349 265.625 752.375 C259.56139832 735.11796866 253.48527542 717.8655663 247.375 700.625 C247.02610718 699.64052887 246.67721436 698.65605774 246.31774902 697.64175415 C244.5676636 692.70391209 242.81715512 687.76622015 241.06640625 682.82861328 C235.50636644 667.14701158 229.95393424 651.46271177 224.40039062 635.77880859 C222.93635631 631.6441995 221.47219285 627.50963619 220.00788498 623.37512398 C217.12546303 615.23649784 214.24369314 607.09764105 211.36256409 598.95855713 C210.87217729 597.57325527 210.3817701 596.18796063 209.89134216 594.80267334 C204.36043199 579.1797175 198.83786815 563.55390594 193.34375 547.91796875 C193.00750673 546.96122128 193.00750673 546.96122128 192.66447067 545.98514557 C190.33197418 539.34821176 188.00147529 532.71058458 185.67431641 526.07177734 C184.93134059 523.9553947 184.18834075 521.83902049 183.4453125 519.72265625 C183.10794067 518.75829147 182.77056885 517.7939267 182.42297363 516.80033875 C182.11597534 515.92658096 181.80897705 515.05282318 181.49267578 514.15258789 C181.22673615 513.39377823 180.96079651 512.63496857 180.6867981 511.85316467 C180.01779801 509.94516379 180.01779801 509.94516379 179 508 C178.99826375 508.79734084 178.9965275 509.59468168 178.99473864 510.41618437 C178.89182081 557.62135368 178.78373229 604.8265087 178.66888306 652.03165057 C178.65511267 657.69338219 178.64138569 663.35511391 178.62768555 669.0168457 C178.62495724 670.14404516 178.62222894 671.27124462 178.61941796 672.43260164 C178.57528358 690.70955739 178.53467045 708.98651936 178.49534739 727.26348602 C178.45495228 746.00249605 178.41079923 764.74149448 178.36312145 783.48048741 C178.33379607 795.0533418 178.30743933 806.62619526 178.28482103 818.19906474 C178.26905306 826.12355646 178.24965124 834.04803396 178.22733159 841.97250991 C178.21454311 846.55176066 178.20341444 851.13100038 178.19658089 855.71026421 C178.19030036 859.89537586 178.17949877 864.08044958 178.1649667 868.26554049 C178.16050795 869.78640548 178.15776661 871.30727658 178.15683801 872.82814782 C178.15534309 874.88184142 178.14721331 876.9355271 178.1386652 878.98920345 C178.13600716 880.13406025 178.13334911 881.27891704 178.13061053 882.45846647 C178 885 178 885 177 886 C175.54322836 886.16070258 174.07921556 886.25638861 172.61523438 886.32543945 C171.67030624 886.37269669 170.72537811 886.41995392 169.7518158 886.46864319 C168.70965408 886.51637375 167.66749237 886.56410431 166.59375 886.61328125 C164.34641857 886.72524575 162.09910489 886.83756682 159.85180664 886.95019531 C158.65588898 887.00872681 157.45997131 887.0672583 156.22781372 887.12756348 C114.70036663 889.18773661 73.42605203 892.74930234 32.12559605 897.47711945 C30.08975427 897.70988577 28.05370793 897.94077571 26.01759338 898.17114258 C23.52004216 898.4545952 21.02296119 898.74223621 18.526474 899.03491211 C16.83984398 899.22597534 16.83984398 899.22597534 15.11914062 899.42089844 C14.14996704 899.53318787 13.18079346 899.64547729 12.18225098 899.76116943 C8.1321108 900.0651358 4.06153062 900 0 900 C0 603 0 306 0 0 Z " fill="#E40813" transform="translate(247,451)"/>
<path d="M0 0 C58.74 0 117.48 0 178 0 C178 296.67 178 593.34 178 899 C175.63061172 896.63061172 175.13318015 894.89742244 174.07421875 891.7265625 C173.6973291 890.61249023 173.32043945 889.49841797 172.93212891 888.35058594 C172.52140137 887.12114258 172.11067383 885.89169922 171.6875 884.625 C170.77654355 881.93338818 169.85964901 879.24382138 168.94140625 876.5546875 C168.70121765 875.85041626 168.46102905 875.14614502 168.21356201 874.42053223 C165.86073346 867.5459131 163.39087613 860.71584144 160.90402222 853.88879395 C154.84819886 837.26262071 148.96996051 820.5763565 143.125 803.875 C137.27806381 787.16972133 131.41068863 770.47308576 125.4375 753.8125 C119.73153826 737.89595221 114.10253846 721.95323836 108.5 706 C102.87548792 689.98470297 97.22541705 673.9795116 91.5 658 C85.81964806 642.1443284 80.20837691 626.26507288 74.625 610.375 C68.56120027 593.11803735 62.48513183 575.86561814 56.375 558.625 C56.02743652 557.64418457 55.67987305 556.66336914 55.32177734 555.65283203 C52.88200664 548.76826327 50.44115077 541.88407951 48 535 C45.20755812 527.12527464 42.41565201 519.25035985 39.625 511.375 C39.2794104 510.39977386 38.9338208 509.42454773 38.57775879 508.41976929 C31.92398987 489.63972515 25.30981075 470.84582332 18.70410156 452.04882812 C15.28008043 442.30756661 11.85386298 432.5672444 8.390625 422.83984375 C8.12502777 422.09357224 7.85943054 421.34730072 7.58578491 420.57841492 C6.40402582 417.2594693 5.21972228 413.9414811 4.03173828 410.62475586 C3.63712402 409.5188208 3.24250977 408.41288574 2.8359375 407.2734375 C2.33392822 405.87230713 2.33392822 405.87230713 1.82177734 404.44287109 C0.29552045 399.90581629 -0.12456467 396.1156574 -0.12304783 391.29209518 C-0.12420167 390.61550708 -0.12535552 389.93891898 -0.12654433 389.2418282 C-0.12920082 386.96431519 -0.12469677 384.68687222 -0.12025452 382.40936279 C-0.12069042 380.76423986 -0.12156567 379.11911699 -0.12284368 377.47399449 C-0.12508496 372.94519668 -0.12107234 368.41642241 -0.11606562 363.8876276 C-0.11175608 359.00694338 -0.11320791 354.12626054 -0.1139679 349.24557495 C-0.11449281 340.78674758 -0.11134939 332.32792791 -0.10573006 323.86910248 C-0.09761067 311.63898826 -0.09499938 299.40887778 -0.09374207 287.17876115 C-0.09155224 267.33727095 -0.08489402 247.49578485 -0.07543945 227.65429688 C-0.06626355 208.37760437 -0.05919505 189.10091299 -0.05493164 169.82421875 C-0.05466364 168.62432454 -0.05439565 167.42443032 -0.05411953 166.18817568 C-0.05204016 156.80452412 -0.05008322 147.42087254 -0.04816496 138.03722095 C-0.0387275 92.0248102 -0.01861009 46.01240972 0 0 Z " fill="#AD050E" transform="translate(565,451)"/>
<path d="M0 0 C0.66 0 1.32 0 2 0 C2.24943359 0.73371826 2.49886719 1.46743652 2.75585938 2.22338867 C8.87099458 20.18042283 15.13452511 38.08065792 21.50680542 55.94799805 C27.23582371 72.01257786 32.91103975 88.09548057 38.5625 104.1875 C44.1661079 120.14030276 49.79723334 136.0823684 55.5 152 C61.18023708 167.85571322 66.79162278 183.73492624 72.375 199.625 C78.43879973 216.88196265 84.51486817 234.13438186 90.625 251.375 C90.97256348 252.35581543 91.32012695 253.33663086 91.67822266 254.34716797 C94.11799336 261.23173673 96.55884923 268.11592049 99 275 C101.79244188 282.87472537 104.58428196 290.74966354 107.375 298.625 C107.72191895 299.60388184 108.06883789 300.58276367 108.42626953 301.59130859 C114.59386116 318.99711489 120.72056481 336.41716877 126.84222412 353.83917236 C132.31252922 369.40379781 137.82430818 384.95269866 143.38998413 400.48345947 C149.77199563 418.29649659 156.04654204 436.14701751 162.3046875 454.00390625 C163.06615364 456.1745678 163.82786796 458.3451423 164.58984375 460.515625 C164.95705536 461.56165894 165.32426697 462.60769287 165.7026062 463.6854248 C168.58040498 471.85969038 171.52876727 480.00715791 174.52903748 488.13726807 C174.83986771 488.98367859 175.15069794 489.83008911 175.47094727 490.70214844 C175.74318619 491.43898865 176.01542511 492.17582886 176.2959137 492.93499756 C177.7619365 497.23467027 178.12520416 500.91786364 178.12584114 505.48646832 C178.12729458 506.13911959 178.12874802 506.79177087 178.13024551 507.46419945 C178.13390706 509.66029422 178.13041837 511.85631964 178.12698364 514.05241394 C178.12813539 515.63907717 178.12972328 517.22574014 178.13171089 518.81240255 C178.13589667 523.17964609 178.1338169 527.54686786 178.13072467 531.9141115 C178.12846781 536.62099061 178.13195158 541.3278659 178.13470459 546.03474426 C178.13915788 555.25752668 178.13818786 564.48030098 178.13529195 573.70308372 C178.1330366 581.19487685 178.13272596 588.6866677 178.13381577 596.17846107 C178.133969 597.24336911 178.13412223 598.30827714 178.13428011 599.40545512 C178.13459982 601.56853125 178.13492403 603.73160738 178.1352527 605.89468352 C178.13810609 626.1903457 178.13482245 646.48600338 178.12945233 666.78166483 C178.12498249 684.21504118 178.12576198 701.64841088 178.13037109 719.08178711 C178.13571601 739.30783854 178.13783345 759.53388602 178.13475883 779.75993806 C178.13444027 781.91428745 178.1341259 784.06863683 178.13381577 786.22298622 C178.13366149 787.2830839 178.13350721 788.34318158 178.13334826 789.43540343 C178.132483 796.92403546 178.13394614 804.41266498 178.13629532 811.90129662 C178.13909251 821.01878469 178.13835669 830.13626416 178.13301457 839.25375124 C178.13037676 843.90999543 178.12937386 848.56622523 178.13266373 853.22246933 C178.13562495 857.47772802 178.13403683 861.73295887 178.12868617 865.98821501 C178.12756126 867.53453611 178.12815479 869.08085953 178.13056196 870.62717917 C178.13356517 872.71517215 178.13052232 874.80306739 178.12584114 876.89105511 C178.12567879 878.05500795 178.12551644 879.21896079 178.12534916 880.41818494 C178 883 178 883 177 884 C175.54322836 884.16070258 174.07921556 884.25638861 172.61523438 884.32543945 C171.67030624 884.37269669 170.72537811 884.41995392 169.7518158 884.46864319 C168.70965408 884.51637375 167.66749237 884.56410431 166.59375 884.61328125 C164.34641857 884.72524575 162.09910489 884.83756682 159.85180664 884.95019531 C158.65588898 885.00872681 157.45997131 885.0672583 156.22781372 885.12756348 C114.70036663 887.18773661 73.42605203 890.74930234 32.12559605 895.47711945 C30.08975427 895.70988577 28.05370793 895.94077571 26.01759338 896.17114258 C23.52004216 896.4545952 21.02296119 896.74223621 18.526474 897.03491211 C16.83984398 897.22597534 16.83984398 897.22597534 15.11914062 897.42089844 C14.14996704 897.53318787 13.18079346 897.64547729 12.18225098 897.76116943 C8.1321108 898.0651358 4.06153062 898 0 898 C0 601.66 0 305.32 0 0 Z " fill="#AC050E" transform="translate(247,453)"/>
</svg>
